<svg width="30" height="30" viewBox="0 0 30 30" fill="none" xmlns="http://www.w3.org/2000/svg">
  <g clip-path="url(#clip0)">
    <path
      d="M26.7238 21.1413C24.8338 19.5438 23.75 17.2087 23.75 14.735V11.25C23.75 6.85125 20.4825 3.21 16.25 2.6V1.25C16.25 0.55875 15.69 0 15 0C14.31 0 13.75 0.55875 13.75 1.25V2.6C9.51625 3.21 6.25 6.85125 6.25 11.25V14.735C6.25 17.2087 5.16625 19.5437 3.265 21.1512C2.77875 21.5675 2.5 22.1725 2.5 22.8125C2.5 24.0187 3.48125 25 4.6875 25H25.3125C26.5188 25 27.5 24.0187 27.5 22.8125C27.5 22.1725 27.2213 21.5675 26.7238 21.1413Z"
      fill="#FFCA62" />
    <path d="M15.0001 30C17.2638 30 19.1576 28.3863 19.5926 26.25H10.4076C10.8426 28.3863 12.7363 30 15.0001 30Z"
      fill="#FFCA62" />
  </g>
  <defs>
    <clipPath id="clip0">
      <rect width="30" height="30" fill="white" />
    </clipPath>
  </defs>
</svg>