<svg width="30" height="30" viewBox="0 0 30 30" fill="none" xmlns="http://www.w3.org/2000/svg">
  <path
    d="M15 0.75C6.72904 0.75 4.03132e-05 6.806 4.03132e-05 14.25C4.03132e-05 16.852 0.82304 19.3725 2.38404 21.552C2.08854 24.8205 1.29654 27.247 0.14654 28.3965C-0.00545968 28.5485 -0.0434597 28.781 0.0525403 28.973C0.13754 29.1445 0.31254 29.25 0.50004 29.25C0.52304 29.25 0.54604 29.2485 0.56954 29.245C0.77204 29.2165 5.47604 28.5395 8.87854 26.5755C10.8105 27.355 12.8685 27.75 15 27.75C23.271 27.75 30 21.694 30 14.25C30 6.806 23.271 0.75 15 0.75ZM8.00004 16.25C6.89704 16.25 6.00004 15.353 6.00004 14.25C6.00004 13.147 6.89704 12.25 8.00004 12.25C9.10304 12.25 10 13.147 10 14.25C10 15.353 9.10304 16.25 8.00004 16.25ZM15 16.25C13.897 16.25 13 15.353 13 14.25C13 13.147 13.897 12.25 15 12.25C16.103 12.25 17 13.147 17 14.25C17 15.353 16.103 16.25 15 16.25ZM22 16.25C20.897 16.25 20 15.353 20 14.25C20 13.147 20.897 12.25 22 12.25C23.103 12.25 24 13.147 24 14.25C24 15.353 23.103 16.25 22 16.25Z"
    fill="#FFCA62" />
</svg>